<svg id="Location" xmlns="http://www.w3.org/2000/svg" width="16.897" height="20" viewBox="0 0 16.897 20">
  <path id="Vector" d="M16.857,7.64A8.45,8.45,0,1,0,2.485,14.428l5.268,5.278a.994.994,0,0,0,1.411,0l5.248-5.278A8.408,8.408,0,0,0,16.857,7.64ZM13.02,13.027,8.449,17.6,3.877,13.027A6.45,6.45,0,0,1,2.018,7.839a6.53,6.53,0,0,1,2.872-4.8,6.431,6.431,0,0,1,7.116,0,6.53,6.53,0,0,1,2.872,4.781,6.45,6.45,0,0,1-1.859,5.208ZM8.449,4.032a4.482,4.482,0,1,0,3.16,1.313,4.473,4.473,0,0,0-3.16-1.313Zm0,6.957a2.485,2.485,0,1,1,1.757-.728,2.485,2.485,0,0,1-1.757.728Z" fill="#293266"/>
</svg>
